<?xml version="1.0" encoding="UTF-8"?>
<svg id="Layer_1" data-name="Layer 1" xmlns="http://www.w3.org/2000/svg" viewBox="0 0 831.64 817.44">
  <path d="M205.84.73c117.42-1.79,235.31.19,352.7.78,75.58.38,149.92-9.88,211.51,44.42,42.69,37.64,58.17,86.16,60.03,141.97,4.92,147.34-3.77,297.41-.06,445.04-1.56,104.56-75.58,179.09-179.5,184.5H178.55C75.27,811.91,1.98,737.78,0,633.99V176.91C8.09,55.13,90.76,2.49,205.84.73ZM453.04,109.44c-3.34-23.53-11.35-47.11-39.22-47.8-77.62,19.63-154.81,40.85-232.36,60.72-20.98,5.38-47.96,9.6-67.65,16.35-16.11,5.52-29.46,30.26-26.52,46.97,35.54,130.5,67.03,262.31,104.94,392.06l13.31,13.69c-.76-7.84-2.18-15.53-1.54-23.53,1.8-22.57,26.52-46.67,34.06-67.94l-.06-346.06c3-29.57,27.98-46.01,56.49-44.51l158.55.04ZM628.04,249.45v-98.5c0-2.76-3.3-10.42-4.83-13.17-11.13-19.87-29.85-17.95-49.71-18.38-89.08,2.74-180.86-3.46-270,0-19.5.76-37.79,1.53-49.48,19.52-2.26,3.47-6.98,14.26-6.98,18.02v327.5l140.17-244.33c20.04-34.95,39.82-97.82,91.81-76.15l149.02,85.48ZM224.39,599.1c5.38,5.27,14.78,10.11,21.35,14.15,81.29,50.02,165.78,95.42,247.76,144.24,24.71,7.17,37.98-2.7,50.95-22.12,29.72-44.48,56.4-96.67,83.78-143.22,42.34-71.97,84.93-143.84,126.98-216.02,8.75-17.99,3.32-37.33-13.27-48.1-78.07-45.36-156.23-90.54-234.59-135.41-26.39-15.12-49.76-34.5-77.3-5.64-74.05,123.53-146.43,248.7-216.58,374.42-3.31,13.47.99,27.99,10.9,37.7Z"/>
  <path d="M224.39,599.1c-9.91-9.71-14.2-24.23-10.9-37.7,70.15-125.72,142.53-250.89,216.58-374.42,27.54-28.86,50.9-9.47,77.3,5.64,78.35,44.87,156.52,90.05,234.59,135.41,16.59,10.77,22.02,30.11,13.27,48.1-42.05,72.17-84.65,144.05-126.98,216.02-27.38,46.55-54.07,98.73-83.78,143.22-12.97,19.42-26.24,29.29-50.95,22.12-81.98-48.82-166.47-94.21-247.76-144.24-6.57-4.04-15.97-8.88-21.35-14.15ZM480.05,256.45c14.25,1.3,25.46-11.45,21.06-25.57-5.63-18.03-42.77-26.62-49.06-4.45l12.52,4.68c7.13-11.18,27.62-4.23,22.37,8.74-4,9.88-14.37,7.67-21.88,3.6l-5.02,9.98c15.62,2.89,13.82,25.59-2.26,22.79-9.7-1.69-12.29-10.79-7.74-18.76-4.46.21-8.64-4.51-12.53-5-2.21-.28-1.13.36-1.56,1.41-12.04,29.36,31.37,49.3,46.52,26.52,3.01-4.52,3.37-9.69,2.14-15-.83-3.56-3.95-5.52-4.56-8.93ZM528.04,477.45h14.5c8.73,0,23.94-9.75,29.48-16.52,42.35-51.77-40.29-117.96-93.64-88.64-8.71,4.79-17.01,13.45-22.23,21.83-.27,1.3.7,1.62,1.52,2.21,8.13,5.79,19.76,9.88,28.05,15.99,2.26.23,5.98-7.04,7.84-8.86,22.62-22.1,67.08,9.33,46.93,37.93-13.44,19.06-39.49,9.54-55.84.14l-13.6,23.91c10.82,4.14,23.26,10.85,29.53,20.98,15.4,24.88-9.88,52.36-36.33,44.33-21.45-6.51-33.73-26.91-23.63-48.34l-30.04-16.99c-37.55,57.57,39.98,119.13,94.15,97.21,35.23-14.26,48.41-55.06,23.32-85.18ZM517.04,695.46c16.87-.01,29.05-17.53,17.51-32.02-8.7-10.92-24.4-15.51-35.99-5.97-1.07.89-5.41,4.65-4.52,5.96l9.5,7.01c10.02-17.45,34.9,3.39,16.2,14.2-8.17,4.72-12.06-3.02-15.06-2.14-1.45,1.46-6.73,8.3-5.61,9.9,9.95,2.18,13.73,16.75,4.93,22.5-6.87,4.49-20.13-3.35-18.95-11.87.27-1.92,2.56-4.06,1.57-5.6l-10.09-5.95c-13.06,17.96,3.65,34.98,22.12,36.86,18.15,1.85,30.96-18.39,18.39-32.88Z" style="fill: #fff;"/>
  <path d="M453.04,109.44l-158.55-.04c-28.51-1.5-53.49,14.94-56.49,44.51l.06,346.06c-7.54,21.27-32.27,45.37-34.06,67.94-.64,8,.78,15.69,1.54,23.53l-13.31-13.69c-37.9-129.76-69.4-261.56-104.94-392.06-2.94-16.71,10.41-41.44,26.52-46.97,19.68-6.75,46.67-10.98,67.65-16.35,77.55-19.87,154.74-41.1,232.36-60.72,27.87.68,35.88,24.27,39.22,47.8ZM151.05,226.44c6.61-17.34,32.7-37.35,15.02-56.52-7.15-7.75-16.9-7.92-26.29-4.25-13.63,5.32-15.68,16.53-13.73,29.78l10.9-2.1c.8-6.41-2.28-13.2,4.4-17.11,10.12-5.93,18.6,3.52,17.66,13.59-1.09,11.63-22.38,31.69-21.73,41.87.17,2.61,2.28,5.77,1.78,8.76l47.01-12.52-3.49-10.34-31.52,8.85Z" style="fill: #fff;"/>
  <path d="M628.04,249.45l-149.02-85.48c-51.99-21.66-71.76,41.2-91.81,76.15l-140.17,244.33V156.95c0-3.77,4.72-14.55,6.98-18.02,11.69-17.98,29.98-18.76,49.48-19.52,89.14-3.46,180.93,2.73,270,0,19.86.43,38.58-1.49,49.71,18.38,1.54,2.74,4.83,10.41,4.83,13.17v98.5ZM320.05,181.47c10.72-4.09,10.64-21.57,2.93-28.46-9.02-8.06-29.4-7.84-36.94,1.94-7.14,9.27-4.96,20.91,3.97,28.03l.02,1.45c-15.71,6.47-13.92,31.88,1.31,38.22,7.43,3.09,22.12,2.79,29.23-1.16,13.86-7.69,14.99-31.04.09-37.95l-.62-2.06Z" style="fill: #fff;"/>
  <path d="M528.04,477.45c25.09,30.12,11.91,70.92-23.32,85.18-54.17,21.92-131.7-39.64-94.15-97.21l30.04,16.99c-10.1,21.43,2.18,41.83,23.63,48.34,26.45,8.03,51.74-19.45,36.33-44.33-6.27-10.13-18.71-16.85-29.53-20.98l13.6-23.91c16.34,9.4,42.4,18.93,55.84-.14,20.16-28.59-24.31-60.03-46.93-37.93-1.86,1.82-5.58,9.09-7.84,8.86-8.28-6.11-19.92-10.2-28.05-15.99-.82-.58-1.79-.91-1.52-2.21,5.22-8.39,13.52-17.05,22.23-21.83,53.36-29.31,136,36.87,93.64,88.64-5.54,6.78-20.75,16.52-29.48,16.52h-14.5Z"/>
  <path d="M480.05,256.45c.62,3.41,3.74,5.36,4.56,8.93,1.24,5.31.87,10.48-2.14,15-15.15,22.78-58.56,2.85-46.52-26.52.43-1.05-.65-1.69,1.56-1.41,3.89.49,8.07,5.21,12.53,5-4.55,7.98-1.96,17.07,7.74,18.76,16.08,2.8,17.88-19.9,2.26-22.79l5.02-9.98c7.51,4.07,17.88,6.28,21.88-3.6,5.25-12.97-15.24-19.92-22.37-8.74l-12.52-4.68c6.29-22.16,43.43-13.58,49.06,4.45,4.41,14.12-6.8,26.87-21.06,25.57Z"/>
  <path d="M517.04,695.46c12.57,14.49-.24,34.73-18.39,32.88-18.47-1.88-35.18-18.89-22.12-36.86l10.09,5.95c.99,1.54-1.3,3.68-1.57,5.6-1.18,8.52,12.08,16.36,18.95,11.87,8.81-5.75,5.03-20.32-4.93-22.5-1.13-1.6,4.16-8.44,5.61-9.9,3-.88,6.89,6.86,15.06,2.14,18.7-10.81-6.17-31.65-16.2-14.2l-9.5-7.01c-.89-1.31,3.44-5.07,4.52-5.96,11.58-9.54,27.29-4.96,35.99,5.97,11.54,14.49-.64,32.01-17.51,32.02Z"/>
  <path d="M151.05,226.44l31.52-8.85,3.49,10.34-47.01,12.52c.49-2.99-1.62-6.15-1.78-8.76-.65-10.18,20.65-30.24,21.73-41.87.94-10.06-7.55-19.52-17.66-13.59-6.67,3.91-3.59,10.7-4.4,17.11l-10.9,2.1c-1.95-13.25.1-24.46,13.73-29.78,9.4-3.67,19.15-3.5,26.29,4.25,17.68,19.17-8.41,39.18-15.02,56.52Z"/>
  <path d="M320.05,181.47l.62,2.06c14.9,6.91,13.77,30.26-.09,37.95-7.11,3.95-21.8,4.25-29.23,1.16-15.23-6.34-17.02-31.74-1.31-38.22l-.02-1.45c-8.93-7.12-11.12-18.75-3.97-28.03,7.53-9.79,27.92-10,36.94-1.94,7.71,6.89,7.79,24.37-2.93,28.46ZM313.73,160.77c-10.75-9.84-29.23,6.9-15.04,15.53,12.12,7.37,23.09-8.16,15.04-15.53ZM302.78,188.67c-15.28,2.63-12.17,26.82,3.64,25.74,16.73-1.15,15.72-29.07-3.64-25.74Z"/>
  <path d="M302.78,188.67c19.37-3.33,20.37,24.59,3.64,25.74-15.81,1.09-18.93-23.11-3.64-25.74Z" style="fill: #fff;"/>
  <path d="M313.73,160.77c8.06,7.37-2.92,22.9-15.04,15.53-14.19-8.63,4.28-25.37,15.04-15.53Z" style="fill: #fff;"/>
</svg>